<?xml version="1.0" encoding="UTF-8"?>
<?xml-stylesheet type="text/css" href="style.css" ?>
<svg width="300" height="500" version="1.0" xmlns="http://www.w3.org/2000/svg" xmlns:cc="http://creativecommons.org/ns#" xmlns:dc="http://purl.org/dc/elements/1.1/" xmlns:rdf="http://www.w3.org/1999/02/22-rdf-syntax-ns#" xmlns:xlink="http://www.w3.org/1999/xlink">
<style>

#estrellas:hover{
    fill:orange;
}
#textomadrid:hover{
    fill:green;
}
#osoarbol:hover{
    fill:green;
}
#bordeescudo:hover{
    fill:#E6D6F5;
}
#osoarbol{
      animation-name: zoom-in;
  animation-duration: 4s;
}
#textomadrid {
    animation:zoom-in;
    animation-duration: 7s;
}

</style>


 <g>
  <g fill-rule="evenodd">
   <path id="bordeescudo" d="m42.397 121.08v167.1c0 43.145-3.9182 92.77 106.05 92.77 108.99 0 106.2-51.873 106.2-94.395v-165.54l-212.26 0.07074z" fill="#fff" stroke="#1f61a9" stroke-width="38.116"/>
   <path id="osoarbol" onclick="saludar('soy el oso y el madroño')" d="m148.19 149.84c-29.206 0.70533-52.563 15.993-52.562 34.812 0 17.487 20.122 31.921 46.375 34.469v91.594l-6.5 10h-72.75v9.2812h171.06v-9.2812h-22.344c0.03099-1.7981 0.57194-3.7678-0.125-5.3125-1.3712-3.039-3.6599-5.7309-5.5-8.5938 3.4989-2.3688 7.3975-5.8576 6.5938-10.531-0.12563-4.0191-2.9742-7.083-4.6875-10.531-3.4215-5.981-7.9363-11.686-10.25-17.969-1.1696-3.176 0.79816-7.1562-0.09375-10.438-1.1748-4.3221-3.0481-9.2536-5.5625-12.469-0.02546-0.03255-0.04504-0.08877-0.0625-0.125-0.47747-1.1414 2.6474-3.9644 2.9375-5.375 1.9354-3.2248 2.4795-8.0754-0.71875-11-1.0209-0.81622-1.5688-1.9031-2.3125-2.2812-0.57278-0.2736-1.2865-0.13593-2.4375 0.875-0.41016 0.58787-0.81102 0.97089-1.1562 1.125-0.01432 0.00601-0.0483 0.02607-0.0625 0.03125-0.01414 0.00477-0.04849 0.02732-0.0625 0.03125-0.01395 0.00351-0.04868-0.00267-0.0625 0-0.0344 0.00561-0.09141 0.031-0.125 0.03125-0.02675-6.7e-4 -0.06753-0.02709-0.09375-0.03125-0.01305-0.00252-0.04959 0.0034-0.0625 0-0.02569-0.0077-0.06859-0.01997-0.09375-0.03125-0.00626-0.00305-0.02503-0.02798-0.03125-0.03125-0.01238-7e-3 -0.05026-0.02334-0.0625-0.03125-0.00609-0.00419-0.0252-0.02683-0.03125-0.03125-0.01203-0.00929-0.05061-0.02103-0.0625-0.03125-0.05912-0.05342-0.13193-0.14165-0.1875-0.21875-0.16564-0.23853-0.30579-0.59738-0.4375-1.0625-0.44298-1.5461-1.4476-2.2335-3.0625-1.9688-1.6315-0.56068-2.3262 0.28013-2.5938 1.8125-2.5356-1.9512-5.0905-4.3925-9.3438-6.3438-4.7777-0.62444-6.9784 4.3214-5.6875 9-0.21377 3.3335 2.0797 5.8209 3.5625 8.5625 0.42908 2.8126-0.168 5.8862 0.40625 8.6875 0.52438 2.558 1.7734 4.2928 3.6875 7.1875 0.2084 0.39199 0.3045 0.72829 0.3125 1 3.7e-4 0.06687 0.01073 0.15924 0 0.21875-0.00526 0.02505-0.02404 0.07004-0.03125 0.09375-0.00785 0.02326-0.0215 0.07182-0.03125 0.09375-0.0415 0.08592-0.11757 0.18528-0.1875 0.25-0.04812 0.04198-0.12786 0.09232-0.1875 0.125-0.02289 0.01182-0.06933 0.02073-0.09375 0.03125-0.04153 0.01682-0.11067 0.04927-0.15625 0.0625-1.6598 0.44814-5.8337-1.3852-8-5.0312-0.50511-2.1373-0.63752-4.5024-1.375-6.5-1.1814-0.79019-2.2043-2.011-3.4688-2.5625-0.51775-0.16653-1.1388-0.15338-1.7812-0.03125v-22.281c26.298-2.5638 46.375-16.996 46.375-34.469 0-19.271-24.566-34.813-54.75-34.812-0.70745 0-1.424-0.01693-2.125 0zm10.5 121.41c1.7169 2.7031 3.7375 5.4171 6.6562 7.5312 0.01588 0.0115 0.04602 0.02045 0.0625 0.03125 0.04194 0.02616 0.1109 0.07156 0.15625 0.09375 0.86459 0.40327 2.3031 0.17107 2.9375 0.78125 0.01314 0.01337 0.0501 0.04833 0.0625 0.0625 0.12629 0.15313 0.2225 0.36371 0.25 0.625 1.1357 3.6124 2.2706 7.2314 3.4062 10.844 1.2445 5.3241 2.9785 6.7118 5 9.625 0.65787 0.61747 1.3279 1.223 1.5312 1.7812 0.0216 0.06396 0.05384 0.15554 0.0625 0.21875 0.00575 0.05409 0.00485 0.13396 0 0.1875-0.0134 0.10689-0.06339 0.23902-0.125 0.34375-0.20882 0.33106-0.6869 0.65885-1.5312 0.96875-2.4661 3.3672 7.406 8.9476 8.6875 10.781 0.00992 0.01478 0.0225 0.04823 0.03125 0.0625 0.02038 0.03504 0.0498 0.09323 0.0625 0.125 0.00445 0.01244 0.02808 0.01934 0.03125 0.03125 0.31224 1.1725-2.4483 3.8512-3.7188 5.375h-17.031l-6.5312-10v-39.469z" fill="#1f61a9"/>
   <path id="estrellas" onclick="saludar('Soy las estrellas del escudo')" d="m41.469 106.94-4.4688 7.7188h-8.9375l5.6562 7.6875-5.6562 7.6875h8.9375l4.4688 7.6875 4.4688-7.6875h8.9375l-5.6562-7.6875 5.6562-7.6875h-8.9375l-4.4688-7.7188zm107.06 0-4.4688 7.7188h-8.9375l5.6562 7.6875-5.6562 7.6875h8.9375l4.4688 7.6875 4.4688-7.6875h8.9375l-5.6875-7.6875 5.6875-7.6875h-8.9375l-4.4688-7.7188zm107.03 0-4.4688 7.7188h-8.9375l5.6875 7.6875-5.6875 7.6875h8.9375l4.4688 7.6875 4.4688-7.6875h8.9375l-5.6562-7.6875 5.6562-7.6875h-8.9375l-4.4688-7.7188zm-120.28 71.938c-2.9197 0.34466-5.1875 2.7132-5.1875 5.5625 0 3.0902 2.6661 5.5938 5.9375 5.5938 3.2824 0 5.9375-2.5036 5.9375-5.5938 0-3.0875-2.6662-5.5625-5.9375-5.5625-0.20446 0-0.42586-0.019-0.625 0-0.04667 0.00445-0.07866-0.00547-0.125 0zm-27.594 1.2188c-2.9197 0.34466-5.1875 2.7132-5.1875 5.5625 0 3.0902 2.6349 5.5938 5.9062 5.5938 3.2824 0 5.9375-2.5036 5.9375-5.5938 0-3.0875-2.6662-5.5625-5.9375-5.5625-0.20446 0-0.39461-0.019-0.59375 0-0.04667 0.00445-0.07865-0.00547-0.125 0zm66.531 1.5625c-3.0607 0.21708-5.4688 2.6493-5.4688 5.5938 0 3.0902 2.6349 5.5938 5.9062 5.5938 3.2824 0 5.9375-2.5036 5.9375-5.5938 0-3.0875-2.6662-5.5937-5.9375-5.5938-0.07667 0-0.14278-0.00271-0.21875 0-0.07419 0.00265-0.14529-0.00521-0.21875 0zm17 1.8438c-2.9905 0.28193-5.3125 2.6658-5.3125 5.5625 0 3.0902 2.6661 5.5938 5.9375 5.5938 3.2824 0 5.9375-2.5036 5.9375-5.5938 0-3.0875-2.6662-5.5625-5.9375-5.5625-0.15334 0-0.31833-0.01075-0.46875 0-0.04779 0.00342-0.10878-0.00448-0.15625 0zm-68.906 3.1562c-3.0607 0.21708-5.4688 2.6493-5.4688 5.5938 0 3.0902 2.6662 5.5938 5.9375 5.5938 3.2824 0 5.9375-2.5036 5.9375-5.5938 0-3.0875-2.6662-5.5937-5.9375-5.5938-0.07667 0-0.17403-0.00271-0.25 0-0.07419 0.00265-0.14529-0.00521-0.21875 0zm39.219 3.5312c-3.0969 0.18406-5.5625 2.6261-5.5625 5.5938 0 3.0902 2.6661 5.5938 5.9375 5.5938 3.2824 0 5.9375-2.5036 5.9375-5.5938 0-3.0875-2.6662-5.5938-5.9375-5.5938-0.02556 0-0.03702-3e-4 -0.0625 0-0.10113 0.0012-0.2126-0.00594-0.3125 0zm-18.688 1.8438c-3.0253 0.25039-5.375 2.6732-5.375 5.5938 0 3.0902 2.6349 5.5625 5.9062 5.5625 3.2824 0 5.9375-2.4723 5.9375-5.5625 0-3.0875-2.6662-5.5937-5.9375-5.5938-0.12779 0-0.24922-0.00749-0.375 0-0.04835 0.00288-0.10823-0.00397-0.15625 0zm34.656 5.125c-2.9905 0.28193-5.3125 2.6658-5.3125 5.5625 0 3.0902 2.6349 5.5938 5.9062 5.5938 3.2824 0 5.9375-2.5036 5.9375-5.5938 0-3.0875-2.6662-5.5625-5.9375-5.5625-0.15334 0-0.28708-0.01075-0.4375 0-0.04779 0.00342-0.10878-0.00448-0.15625 0zm-47.938 4.0312c-2.9556 0.31366-5.25 2.6895-5.25 5.5625 0 3.0902 2.6661 5.5938 5.9375 5.5938 3.2824 0 5.9375-2.5036 5.9375-5.5938 0-3.0875-2.6662-5.5625-5.9375-5.5625-0.1789 0-0.35637-0.01459-0.53125 0-0.04723 0.00394-0.10934-0.00498-0.15625 0zm20.25 2.5625c-2.9556 0.31366-5.25 2.6895-5.25 5.5625 0 3.0902 2.6661 5.5937 5.9375 5.5938 3.2824 0 5.9375-2.5036 5.9375-5.5938 0-3.0875-2.6662-5.5625-5.9375-5.5625-0.1789 0-0.35637-0.01459-0.53125 0-0.04723 0.00394-0.10934-0.00498-0.15625 0zm-108.34 3.0938-4.4688 7.6875h-8.9375l5.6562 7.6875-5.6562 7.6875h8.9375l4.4688 7.6875 4.4688-7.6875h8.9375l-5.6562-7.6875 5.6562-7.6875h-8.9375l-4.4688-7.6875zm214.09 0-4.4688 7.6875h-8.9375l5.6875 7.6875-5.6875 7.6875h8.9375l4.4688 7.6875 4.4688-7.6875h8.9375l-5.6562-7.6875 5.6562-7.6875h-8.9375l-4.4688-7.6875zm-214.09 102.06-4.4688 7.6875h-8.9375l5.6562 7.6875-5.6562 7.6875h8.9375l4.4688 7.6875 4.4688-7.6875h8.9375l-5.6562-7.6875 5.6562-7.6875h-8.9375l-4.4688-7.6875zm214.09 0-4.4688 7.6875h-8.9375l5.6875 7.6875-5.6875 7.6875h8.9375l4.4688 7.6875 4.4688-7.6875h8.9375l-5.6562-7.6875 5.6562-7.6875h-8.9375l-4.4688-7.6875z" fill="#fff"/>
  </g>
  <path id="textomadrid" onclick="saludar('saluditos desde la Puerta de Alcala')" d="m13.362 439.79v5.4439c4.5291-4.1991 9.4481-6.2987 14.757-6.2987 7.2885 4e-5 12.387 3.0144 15.297 9.0432 5.1289-6.0288 10.708-9.0432 16.737-9.0432 4.889 4e-5 8.8782 1.4847 11.968 4.4541 3.0893 2.9694 4.634 6.8387 4.6341 11.608v27.265h-13.362v-24.88c-7e-5 -2.9994-0.68993-5.3239-2.0696-6.9736-1.3798-1.6796-3.2994-2.5195-5.7588-2.5195-3.8993 3e-5 -7.4086 2.3996-10.528 7.1986v27.175h-13.317v-25.15c-4e-5 -2.9694-0.74989-5.2489-2.2496-6.8386-1.4697-1.5896-3.4343-2.3845-5.8938-2.3845-3.5093 3e-5 -6.9136 1.9646-10.213 5.8938v28.479h-13.362v-42.472h13.362m118.1 31.989v7.4235c-4.4392 2.5795-8.6083 3.8692-12.508 3.8692-4.1992 0-6.6887-1.5897-7.4685-4.769-4.6491 3.1794-9.3132 4.769-13.992 4.769-3.2994 0-6.1038-1.0348-8.4133-3.1044-2.3095-2.0996-3.4643-4.5291-3.4643-7.2885-1e-5 -3.6892 1.1848-6.6586 3.5543-8.9082 2.3995-2.2795 9.6281-5.2039 21.686-8.7732 0.29991-4.739-2.1596-7.1085-7.3785-7.1086-5.6689 3e-5 -10.888 2.3696-15.657 7.1086v-10.888c5.5789-3.4493 11.713-5.1739 18.401-5.174 11.998 4e-5 17.996 4.3042 17.996 12.912v19.346c-5e-5 1.9796 0.73481 2.9694 2.2046 2.9694 1.1097 1e-5 2.7894-0.79483 5.039-2.3845m-20.606 0.17996v-10.258c-4.4691 1.5597-7.5435 2.9694-9.2232 4.2292-1.6497 1.2298-2.4745 2.8044-2.4745 4.724-2e-5 1.2298 0.4199 2.2946 1.2598 3.1944 0.83981 0.86984 1.8596 1.3048 3.0594 1.3047 2.5195 1e-5 4.979-1.0648 7.3785-3.1944m68.926-52.549v62.852h-13.362v-3.4193c-3.4194 2.8194-7.3486 4.2292-11.788 4.2292-5.6689 0-10.408-2.0996-14.217-6.2987-3.7792-4.1992-5.6689-9.4631-5.6689-15.792 0-6.4787 1.9196-11.773 5.7588-15.882 3.8692-4.1091 8.8182-6.1637 14.847-6.1638 3.7492 4e-5 7.4385 0.89986 11.068 2.6995v-22.226h13.362m-13.362 51.245v-20.291c-2.4296-1.6496-4.919-2.4745-7.4685-2.4745-3.3594 3e-5 -5.9838 1.1698-7.8734 3.5093-1.8596 2.3396-2.7895 5.6239-2.7894 9.853-1e-5 3.8992 0.9298 7.0336 2.7894 9.4031 1.8596 2.3395 4.3341 3.5093 7.4235 3.5093 2.7294 1e-5 5.3689-1.1698 7.9184-3.5093m38.152-30.864v12.148h0.17996c3.8692-8.6682 8.3833-13.002 13.542-13.002 2.4595 4e-5 5.4139 1.2898 8.8632 3.8692l-3.6893 11.833c-3.2994-2.0996-5.9388-3.1493-7.9184-3.1494-3.0894 3e-5 -5.6989 1.9196-7.8284 5.7588-2.0996 3.8093-3.1494 6.0288-3.1494 6.6587v18.356h-13.362v-42.472h13.362m27.22-13.812c-1e-5 -2.0395 0.71984-3.7792 2.1596-5.219 1.4397-1.4396 3.1644-2.1595 5.174-2.1596 2.0396 7e-5 3.7792 0.71992 5.219 2.1596 1.4397 1.4398 2.1595 3.1794 2.1596 5.219-3e-5 2.0096-0.71988 3.7493-2.1596 5.219-1.4397 1.4398-3.1794 2.1596-5.219 2.1596-2.0096 5e-5 -3.7343-0.7198-5.174-2.1596-1.4397-1.4696-2.1596-3.2093-2.1596-5.219m14.082 13.812v42.472h-13.362v-42.472h13.362m54.124-20.381v62.852h-13.362v-3.4193c-3.4194 2.8194-7.3486 4.2292-11.788 4.2292-5.6689 0-10.408-2.0996-14.217-6.2987-3.7792-4.1992-5.6689-9.4631-5.6689-15.792-1e-5 -6.4787 1.9196-11.773 5.7588-15.882 3.8692-4.1091 8.8182-6.1637 14.847-6.1638 3.7492 4e-5 7.4385 0.89986 11.068 2.6995v-22.226h13.362m-13.362 51.245v-20.291c-2.4296-1.6496-4.9191-2.4745-7.4685-2.4745-3.3593 3e-5 -5.9838 1.1698-7.8734 3.5093-1.8596 2.3396-2.7894 5.6239-2.7894 9.853-1e-5 3.8992 0.92979 7.0336 2.7894 9.4031 1.8596 2.3395 4.3341 3.5093 7.4235 3.5093 2.7294 1e-5 5.3689-1.1698 7.9184-3.5093" fill="#1f61a9"/>
  <g transform="matrix(1.0923 0 0 1.0858 -1.8695 -88.85)" fill="#1f61a9" stroke="#fff">
   <path id="path3972" d="m137.95 110.95 3.0982 0.56973c-0.49914 1.2529-0.6025 2.6218-0.6025 4.0637 0 6.4258 5.5208 11.654 12.317 11.654 5.4553 0 14.101-3.378 15.697-8.0442 0.17899 0.12352 1.1748-4.215 1.689-4.162 0.43107 0.04538-1.6143 4.2427-1.4555 4.162l0.27317 8.3997c-3.1638 2.8814-11.464 4.6586-16.204 4.6586-6.2065 0-11.742-3.0402-14.881-7.6283-3.1335 4.5881-8.6644 7.6283-14.861 7.6283-4.7368 0-11.048-1.7772-14.214-4.6586l0.2757-8.3997c0.1689 0.08067-1.8765-4.1167-1.4479-4.162 0.50922-0.05293 1.5126 4.2856 1.6814 4.162 1.6058 4.6662 8.2443 8.0442 13.717 8.0442 6.7939 0 12.297-5.2284 12.297-11.654 0-1.442-0.08571-2.8108-0.59241-4.0637l3.2116-0.56973" fill="#1f61a9" stroke="#fff" stroke-linejoin="round" stroke-width=".38776"/>
   <path d="m21.373 144.67c-2.9285 0-5.1387 0.26992-5.1282-3.3377 0.01044-3.6076 2.5858-3.3377 5.1282-3.3377h232.86c2.879 0 5.1744-0.2317 5.1282 3.3377-0.04615 3.5679-2.0382 3.3377-5.1282 3.3377h-232.86z" fill="#1f61a9" stroke="#fff" stroke-linejoin="round" stroke-width=".38776"/>
   <path   d="m137.74 82.376c2.6091 2.3646 4.6183 5.9015 4.8729 9.5392 0 0 0.46889-0.65796 2.2814-1.3159 1.81-0.65796 3.199-0.40082 3.199-0.40082s-0.96551 2.6419-1.389 3.5646c-0.42099 0.92517-0.96551 3.8242-2.0949 6.3225-1.0966 2.5159-2.6268 4.4091-2.6268 4.4091-0.99576-1.1369-2.4957-1.8756-4.1872-1.8756-1.6815 0-3.1814 0.73862-4.1772 1.8756 0 0-1.5302-1.8932-2.6369-4.4091-1.1193-2.4982-1.6714-5.3973-2.0848-6.3225-0.421-0.92265-1.3991-3.5646-1.3991-3.5646s1.3991-0.25713 3.2016 0.40082c1.81 0.65796 2.2915 1.3159 2.2915 1.3159 0.25209-3.6377 2.1503-7.1745 4.7494-9.5392zm-4.0461 28.706c-0.8067-0.89745-1.3235-2.0621-1.3235-3.3251 0-1.2529 0.47897-2.4251 1.2857-3.3074 0 0-2.2335-1.6714-4.7494-2.8083-1.9058-0.87223-5.4452-1.4747-6.5065-1.6714-1.0689-0.2042-3.1915-0.60502-3.1915-0.60502s0.08572 0.5067 0.49662 1.6714c0.49914 1.4142 0.99576 2.3218 0.99576 2.3218-3.678 0.22185-7.1443 2.052-9.5467 4.4267 2.4024 2.3545 5.8586 4.1419 9.5467 4.3839 0 0-0.49662 0.89745-0.99576 2.3192-0.4109 1.147-0.49662 1.6613-0.49662 1.6613s2.1226-0.39074 3.1915-0.58486c1.0613-0.21427 4.6007-0.80921 6.5065-1.689 2.5159-1.1395 4.7872-2.7831 4.7872-2.7831v-0.01008zm8.1778 0c0.8067-0.89745 1.321-2.0621 1.321-3.3251 0-1.2529-0.47645-2.4251-1.2857-3.3074 0 0 2.2361-1.6714 4.7519-2.8083 1.9134-0.87223 5.4528-1.4747 6.514-1.6714 1.0512-0.2042 3.1713-0.60502 3.1713-0.60502s-0.0731 0.5067-0.49662 1.6714c-0.49914 1.4142-0.98568 2.3218-0.98568 2.3218 3.6805 0.22185 7.1418 2.052 9.5366 4.4267-2.3949 2.3545-5.8485 4.1419-9.5366 4.3839 0 0 0.48654 0.89745 0.98568 2.3192 0.41344 1.147 0.49662 1.6613 0.49662 1.6613s-2.11-0.39074-3.1713-0.58486c-1.0613-0.21427-4.6007-0.80921-6.514-1.689-2.5159-1.1395-4.7872-2.7831-4.7872-2.7831v-0.01008z" fill="#1f61a9" stroke="#fff" stroke-linejoin="round" stroke-width=".38776"/>
   <path id="path11928" d="m132.37 107.76c0-2.8436 2.4302-5.1376 5.425-5.1376 2.9948 0 5.4351 2.294 5.4351 5.1376 0 2.8461-2.4302 5.1477-5.4351 5.1477-2.9948 0-5.425-2.3016-5.425-5.1477z" fill="#1f61a9" stroke="#fff" stroke-linejoin="round" stroke-width=".38776"/>
   <g fill="#1f61a9" stroke="#ffffff">
    <use transform="translate(60)" width="275" height="500" xlink:href="#path3964"/>
    <use transform="translate(-60)" width="275" height="500" xlink:href="#path3964"/>
    <use transform="translate(-60)" width="275" height="500" xlink:href="#path3972"/>
    <use transform="translate(-60)" width="275" height="500" xlink:href="#path11928"/>
    <use transform="translate(-28.992 10.166)" width="275" height="500" xlink:href="#path11928"/>
    <use transform="translate(60)" width="275" height="500" xlink:href="#path3972"/>
    <use transform="translate(31 10)" width="275" height="500" xlink:href="#path11928"/>
    <use id="use4019" transform="translate(60)" width="275" height="500" fill="#1f61a9" stroke="#ffffff" xlink:href="#path11928"/>
   </g>
   <g fill="#1f61a9">
    <g id="g4041">
     <path d="m253.14 110.46c-0.34137-0.90197-0.41602-2.028-0.16217-3.2004 0.55828-2.5411 2.4967-4.366 4.3313-4.0601 0.23466 0.04683 0.52192 0.12974 0.73214 0.23618 0 0-0.957-5.8206 0.59441-9.1673 1.5413-3.3643 6.2027-6.3369 6.2027-6.3369-2.4148-3.1897-6.98-3.7903-10.349-1.24-1.9757 1.4958-3.2246 3.7345-3.2746 5.9571l-2.0748-1.7966s-2.3015 2.5898-1.2008 6.6289c1.1168 4.0396 5.8598 7.5061 5.8598 7.5061s-2.1326-1.4177-4.1219-1.9321c-1.9757-0.50888-5.63 0.06021-7.467 0.44865-1.8324 0.39448-3.937 0.4922-3.937 0.4922s0.20295 0.39337 0.80043 1.2912c0.7253 1.0666 1.2855 1.6353 1.2855 1.6353-2.7307 1.5551-5.3231 4.1533-6.9173 6.742 2.4027 1.169 5.5965 1.5619 8.6987 0.652 0 0-0.32657 1.3729-0.52552 2.7598-0.15205 1.1648-0.12523 1.6346-0.12523 1.6346s1.881-1.0446 2.8265-1.5707c0.92936-0.52653 4.089-2.2167 5.6881-3.6044 1.1828-1.0188 2.4204-2.2783 3.1353-3.0756z" fill="#1f61a9" stroke="#fff" stroke-linejoin="round" stroke-width=".38776"/>
     <path d="m257.95 110.95 3.0982 0.56973c-0.49914 1.2529 1.2405 7.3853-3.1663 13.104-4.38 5.6836-8.6644 7.6283-14.861 7.6283-4.7368 0-11.048-1.7772-14.214-4.6586l0.2757-8.3997c0.1689 0.08067-1.8765-4.1167-1.4479-4.162 0.50922-0.05293 1.5126 4.2856 1.6814 4.162 1.6058 4.6662 8.2443 8.0442 13.717 8.0442 6.7939 0 12.297-5.2284 12.297-11.654 0-1.442-0.08571-2.8108-0.59241-4.0637l3.2116-0.56973" fill="#1f61a9" stroke="#fff" stroke-linejoin="round" stroke-width=".38776"/>
     <use transform="translate(91.1 10)" width="275" height="500" fill="#1f61a9" stroke="#ffffff" xlink:href="#path11928"/>
     <use transform="translate(60)" width="275" height="500" fill="#1f61a9" stroke="#ffffff" xlink:href="#use4019"/>
    </g>
    <use transform="matrix(-1 0 0 1 278.31 0)" width="275" height="500" stroke="#ffffff" xlink:href="#g4041"/>
    <path d="m21.373 170.67c-2.9285 0-5.1387 0.26992-5.1282-3.3377 0.01044-3.6076 2.5858-3.3377 5.1282-3.3377h232.86c2.879 0 5.1744-0.2317 5.1282 3.3377-0.04615 3.5679-2.0382 3.3377-5.1282 3.3377h-232.86z" stroke="#fff" stroke-linejoin="round" stroke-width=".38776"/>
    <path id="use4924" d="m105.04 154.33c0-2.8436 2.4302-5.1376 5.425-5.1376 2.9948 0 5.4351 2.294 5.4351 5.1376 0 2.8461-2.4302 5.1477-5.4351 5.1477-2.9948 0-5.425-2.3016-5.425-5.1477z" fill="#1f61a9" stroke="#fff" stroke-linejoin="round" stroke-width=".38776"/>
   </g>
   <g fill="#1f61a9" stroke="#ffffff">
    <use transform="translate(56.667)" width="275" height="500" xlink:href="#use4924"/>
    <use transform="translate(113.33)" width="275" height="500" xlink:href="#use4924"/>
    <use transform="translate(-56.667)" width="275" height="500" xlink:href="#use4924"/>
   </g>
   <g fill="#1f61a9">
    <path d="m119.92 154.33c0-2.8436 8.4485-5.1376 18.86-5.1376 10.412 0 18.895 2.294 18.895 5.1376 0 2.8461-8.4485 5.1477-18.895 5.1477-10.412 0-18.86-2.3016-18.86-5.1477z" stroke="#fff" stroke-linejoin="round" stroke-width=".38776"/>
    <path id="path4936" d="m233.16 154.33c0-2.8436 5.8611-5.1376 13.084-5.1376 7.223 0 13.108 2.294 13.108 5.1376 0 2.8461-5.8611 5.1477-13.108 5.1477-7.223 0-13.084-2.3016-13.084-5.1477z" fill="#1f61a9" stroke="#fff" stroke-linejoin="round" stroke-width=".38776"/>
    <use transform="translate(-216.92)" width="275" height="500" stroke="#ffffff" xlink:href="#path4936"/>
    <path id="rect4940" d="m82.135 148.34 18.445 5.5815-18.445 6.395-18.445-5.5815 18.445-6.395z" fill="#1f61a9" fill-rule="evenodd" stroke="#fff" stroke-width=".388"/>
    <use transform="translate(113.33)" width="275" height="500" stroke="#ffffff" xlink:href="#rect4940"/>
   </g>
  </g>
 </g>
 <script>
 function saludar(texto){
    alert(`Soy ${texto}`)

 }
 </script>
</svg>
