<?xml version="1.0" encoding="UTF-8"?>
<!-- Created with Inkscape (http://www.inkscape.org/) -->
<svg width="1122.5" height="793.71" version="1.1" viewBox="0 0 1122.5 793.71" xmlns="http://www.w3.org/2000/svg" xmlns:xlink="http://www.w3.org/1999/xlink">
 <defs>
  <clipPath id="clipPath2">
   <path transform="translate(-108.34 -164.24)" d="M 0,595.28 H 841.89 V 0 H 0 Z"/>
  </clipPath>
  <clipPath id="clipPath4">
   <path transform="translate(-204.81 -170.43)" d="M 0,595.28 H 841.89 V 0 H 0 Z"/>
  </clipPath>
  <clipPath id="clipPath6">
   <path transform="translate(-185.51 -342.28)" d="M 0,595.28 H 841.89 V 0 H 0 Z"/>
  </clipPath>
  <clipPath id="clipPath8">
   <path transform="translate(-137.32 -338.91)" d="M 0,595.28 H 841.89 V 0 H 0 Z"/>
  </clipPath>
  <clipPath id="clipPath10">
   <path transform="translate(-134.72 -339.48)" d="M 0,595.28 H 841.89 V 0 H 0 Z"/>
  </clipPath>
  <clipPath id="clipPath12">
   <path transform="translate(-173.23 -338.91)" d="M 0,595.28 H 841.89 V 0 H 0 Z"/>
  </clipPath>
  <clipPath id="clipPath14">
   <path transform="translate(-170.63 -339.48)" d="M 0,595.28 H 841.89 V 0 H 0 Z"/>
  </clipPath>
  <clipPath id="clipPath16">
   <path transform="translate(-152.92 -325.88)" d="M 0,595.28 H 841.89 V 0 H 0 Z"/>
  </clipPath>
  <clipPath id="clipPath18">
   <path transform="translate(-139.3 -318.27)" d="M 0,595.28 H 841.89 V 0 H 0 Z"/>
  </clipPath>
  <clipPath id="clipPath20">
   <path transform="translate(-144.05 -297.09)" d="M 0,595.28 H 841.89 V 0 H 0 Z"/>
  </clipPath>
  <clipPath id="clipPath22">
   <path transform="translate(-185.36 -338.17)" d="M 0,595.28 H 841.89 V 0 H 0 Z"/>
  </clipPath>
  <clipPath id="clipPath24">
   <path transform="translate(-123.61 -346.66)" d="M 0,595.28 H 841.89 V 0 H 0 Z"/>
  </clipPath>
  <clipPath id="clipPath26">
   <path transform="translate(-172.7 -346.66)" d="M 0,595.28 H 841.89 V 0 H 0 Z"/>
  </clipPath>
  <clipPath id="clipPath28">
   <path transform="translate(-109.41 -180.73)" d="M 0,595.28 H 841.89 V 0 H 0 Z"/>
  </clipPath>
  <clipPath id="clipPath30">
   <path transform="translate(-185.51 -231.7)" d="M 0,595.28 H 841.89 V 0 H 0 Z"/>
  </clipPath>
  <clipPath id="clipPath32">
   <path transform="translate(-138.9 -26.471)" d="M 0,595.28 H 841.89 V 0 H 0 Z"/>
  </clipPath>
  <clipPath id="clipPath34">
   <path transform="translate(-100.54 -25.687)" d="M 0,595.28 H 841.89 V 0 H 0 Z"/>
  </clipPath>
  <clipPath id="clipPath36">
   <path transform="translate(-117.04 -42.044)" d="M 0,595.28 H 841.89 V 0 H 0 Z"/>
  </clipPath>
  <clipPath id="clipPath38">
   <path transform="translate(-114.78 -37.849)" d="M 0,595.28 H 841.89 V 0 H 0 Z"/>
  </clipPath>
  <clipPath id="clipPath40">
   <path transform="translate(-112.3 -33.156)" d="M 0,595.28 H 841.89 V 0 H 0 Z"/>
  </clipPath>
  <clipPath id="clipPath42">
   <path transform="translate(-158.26 -26.471)" d="M 0,595.28 H 841.89 V 0 H 0 Z"/>
  </clipPath>
  <clipPath id="clipPath44">
   <path transform="translate(-196.62 -25.687)" d="M 0,595.28 H 841.89 V 0 H 0 Z"/>
  </clipPath>
  <clipPath id="clipPath46">
   <path transform="translate(-180.12 -42.044)" d="M 0,595.28 H 841.89 V 0 H 0 Z"/>
  </clipPath>
  <clipPath id="clipPath48">
   <path transform="translate(-182.38 -37.849)" d="M 0,595.28 H 841.89 V 0 H 0 Z"/>
  </clipPath>
  <clipPath id="clipPath50">
   <path transform="translate(-184.86 -33.156)" d="M 0,595.28 H 841.89 V 0 H 0 Z"/>
  </clipPath>
  <clipPath id="clipPath53">
   <path transform="translate(-360.89 -449.61)" d="M 0,595.28 H 841.89 V 0 H 0 Z"/>
  </clipPath>
  <clipPath id="clipPath55">
   <path transform="translate(-360.89 -449.61)" d="M 0,595.28 H 841.89 V 0 H 0 Z"/>
  </clipPath>
  <clipPath id="clipPath57">
   <path transform="translate(-341.27 -535.57)" d="M 0,595.28 H 841.89 V 0 H 0 Z"/>
  </clipPath>
  <clipPath id="clipPath59">
   <path transform="translate(-264.89 -272.45)" d="M 0,595.28 H 841.89 V 0 H 0 Z"/>
  </clipPath>
  <clipPath id="clipPath61">
   <path transform="translate(-351.35 -271.6)" d="M 0,595.28 H 841.89 V 0 H 0 Z"/>
  </clipPath>
  <clipPath id="clipPath63">
   <path transform="translate(-299.63 -527.13)" d="M 0,595.28 H 841.89 V 0 H 0 Z"/>
  </clipPath>
  <clipPath id="clipPath65">
   <path transform="translate(-296.24 -510.93)" d="M 0,595.28 H 841.89 V 0 H 0 Z"/>
  </clipPath>
  <clipPath id="clipPath67">
   <path transform="translate(-294.55 -484.07)" d="M 0,595.28 H 841.89 V 0 H 0 Z"/>
  </clipPath>
  <clipPath id="clipPath69">
   <path transform="translate(-295.61 -499.28)" d="M 0,595.28 H 841.89 V 0 H 0 Z"/>
  </clipPath>
  <clipPath id="clipPath71">
   <path transform="translate(-339.85 -531.92)" d="M 0,595.28 H 841.89 V 0 H 0 Z"/>
  </clipPath>
  <clipPath id="clipPath73">
   <path transform="translate(-277.89 -543.31)" d="M 0,595.28 H 841.89 V 0 H 0 Z"/>
  </clipPath>
  <clipPath id="clipPath75">
   <path transform="translate(-331.12 -543.31)" d="M 0,595.28 H 841.89 V 0 H 0 Z"/>
  </clipPath>
  <clipPath id="clipPath77">
   <path transform="translate(-290.12 -470.6)" d="M 0,595.28 H 841.89 V 0 H 0 Z"/>
  </clipPath>
  <clipPath id="clipPath79">
   <path transform="translate(-319.46 -470.6)" d="M 0,595.28 H 841.89 V 0 H 0 Z"/>
  </clipPath>
  <clipPath id="clipPath81">
   <path transform="translate(-250.47 -360.12)" d="M 0,595.28 H 841.89 V 0 H 0 Z"/>
  </clipPath>
  <clipPath id="clipPath83">
   <path transform="translate(-366.12 -360.12)" d="M 0,595.28 H 841.89 V 0 H 0 Z"/>
  </clipPath>
  <clipPath id="clipPath85">
   <path transform="translate(-294.95 -48.714)" d="M 0,595.28 H 841.89 V 0 H 0 Z"/>
  </clipPath>
  <clipPath id="clipPath87">
   <path transform="translate(-294.95 -48.714)" d="M 0,595.28 H 841.89 V 0 H 0 Z"/>
  </clipPath>
  <clipPath id="clipPath89">
   <path transform="translate(-322.75 -48.714)" d="M 0,595.28 H 841.89 V 0 H 0 Z"/>
  </clipPath>
  <clipPath id="clipPath91">
   <path transform="translate(-289.05 -319.16)" d="M 0,595.28 H 841.89 V 0 H 0 Z"/>
  </clipPath>
  <clipPath id="clipPath93">
   <path transform="translate(-349.14 -319.78)" d="M 0,595.28 H 841.89 V 0 H 0 Z"/>
  </clipPath>
  <clipPath id="clipPath95">
   <path d="M 0,595.28 H 841.89 V 0 H 0 Z"/>
  </clipPath>
  <clipPath id="clipPath97">
   <path transform="translate(-312.82 -320.06)" d="M 0,595.28 H 841.89 V 0 H 0 Z"/>
  </clipPath>
  <clipPath id="clipPath99">
   <path transform="translate(-305.81 -445.61)" d="M 0,595.28 H 841.89 V 0 H 0 Z"/>
  </clipPath>
  <clipPath id="clipPath101">
   <path transform="translate(-295.17 -535.04)" d="M 0,595.28 H 841.89 V 0 H 0 Z"/>
  </clipPath>
  <clipPath id="clipPath103">
   <path transform="translate(-292.78 -535.57)" d="M 0,595.28 H 841.89 V 0 H 0 Z"/>
  </clipPath>
  <clipPath id="clipPath105">
   <path transform="translate(-327.14 -535.04)" d="M 0,595.28 H 841.89 V 0 H 0 Z"/>
  </clipPath>
  <clipPath id="clipPath107">
   <path transform="translate(-324.75 -535.57)" d="M 0,595.28 H 841.89 V 0 H 0 Z"/>
  </clipPath>
  <clipPath id="clipPath109">
   <path transform="translate(-457.53 -505.34)" d="M 0,595.28 H 841.89 V 0 H 0 Z"/>
  </clipPath>
  <clipPath id="clipPath111">
   <path transform="translate(-477.47 -56.853)" d="M 0,595.28 H 841.89 V 0 H 0 Z"/>
  </clipPath>
  <clipPath id="clipPath113">
   <path transform="translate(-515.58 -55.248)" d="M 0,595.28 H 841.89 V 0 H 0 Z"/>
  </clipPath>
  <clipPath id="clipPath115">
   <path d="M 0,595.28 H 841.89 V 0 H 0 Z"/>
  </clipPath>
  <clipPath id="clipPath117">
   <path transform="translate(-452.19 -25.62)" d="M 0,595.28 H 841.89 V 0 H 0 Z"/>
  </clipPath>
  <clipPath id="clipPath119">
   <path d="M 0,595.28 H 841.89 V 0 H 0 Z"/>
  </clipPath>
  <clipPath id="clipPath121">
   <path transform="translate(-524.06 -25.62)" d="M 0,595.28 H 841.89 V 0 H 0 Z"/>
  </clipPath>
  <clipPath id="clipPath123">
   <path transform="translate(-522.26 -172.65)" d="M 0,595.28 H 841.89 V 0 H 0 Z"/>
  </clipPath>
  <clipPath id="clipPath125">
   <path transform="translate(-544.42 -287.27)" d="M 0,595.28 H 841.89 V 0 H 0 Z"/>
  </clipPath>
  <clipPath id="clipPath127">
   <path transform="translate(-544.42 -287.27)" d="M 0,595.28 H 841.89 V 0 H 0 Z"/>
  </clipPath>
  <clipPath id="clipPath129">
   <path transform="translate(-523.37 -407.74)" d="M 0,595.28 H 841.89 V 0 H 0 Z"/>
  </clipPath>
  <clipPath id="clipPath131">
   <path transform="translate(-479.5 -453.71)" d="M 0,595.28 H 841.89 V 0 H 0 Z"/>
  </clipPath>
  <clipPath id="clipPath133">
   <path transform="translate(-480.3 -494.21)" d="M 0,595.28 H 841.89 V 0 H 0 Z"/>
  </clipPath>
  <clipPath id="clipPath135">
   <path transform="translate(-475.97 -495.64)" d="M 0,595.28 H 841.89 V 0 H 0 Z"/>
  </clipPath>
  <clipPath id="clipPath137">
   <path transform="translate(-491.57 -494.21)" d="M 0,595.28 H 841.89 V 0 H 0 Z"/>
  </clipPath>
  <clipPath id="clipPath139">
   <path transform="translate(-495.91 -495.64)" d="M 0,595.28 H 841.89 V 0 H 0 Z"/>
  </clipPath>
  <clipPath id="clipPath141">
   <path transform="translate(-483.08 -492.74)" d="M 0,595.28 H 841.89 V 0 H 0 Z"/>
  </clipPath>
  <clipPath id="clipPath143">
   <path transform="translate(-483.08 -478.43)" d="M 0,595.28 H 841.89 V 0 H 0 Z"/>
  </clipPath>
  <clipPath id="clipPath145">
   <path transform="translate(-478.07 -469.58)" d="M 0,595.28 H 841.89 V 0 H 0 Z"/>
  </clipPath>
  <clipPath id="clipPath147">
   <path transform="translate(-515.08 -497.12)" d="M 0,595.28 H 841.89 V 0 H 0 Z"/>
  </clipPath>
  <clipPath id="clipPath149">
   <path transform="translate(-463.32 -502.17)" d="M 0,595.28 H 841.89 V 0 H 0 Z"/>
  </clipPath>
  <clipPath id="clipPath151">
   <path transform="translate(-508.95 -502.17)" d="M 0,595.28 H 841.89 V 0 H 0 Z"/>
  </clipPath>
  <clipPath id="clipPath153">
   <path transform="translate(-641.6 -87.28)" d="M 0,595.28 H 841.89 V 0 H 0 Z"/>
  </clipPath>
  <clipPath id="clipPath155">
   <path transform="translate(-617.04 -29.136)" d="M 0,595.28 H 841.89 V 0 H 0 Z"/>
  </clipPath>
  <clipPath id="clipPath157">
   <path transform="translate(-665.74 -87.28)" d="M 0,595.28 H 841.89 V 0 H 0 Z"/>
  </clipPath>
  <clipPath id="clipPath159">
   <path transform="translate(-690.3 -29.136)" d="M 0,595.28 H 841.89 V 0 H 0 Z"/>
  </clipPath>
  <pattern id="pattern165" width="55.051" height="53.8708" patternTransform="translate(0,595.28)" patternUnits="userSpaceOnUse">
   <path d="m55.051 0h-55.051v53.871h55.051v-53.871z" fill="#f8ed37"/>
   <path transform="translate(39.388 16.59)" d="m0 0-0.025-1.072h1.541l-0.026 1.072c-2e-3 0.082 1e-3 0.165 6e-3 0.249h-1.502c5e-3 -0.084 8e-3 -0.167 6e-3 -0.249m12.582-3.774c0.037-1.566-1.215-2.878-2.781-2.915l-3.8 0.369 0.384-2.902c0-1.567-1.282-2.849-2.849-2.849h-5.539c-1.566 0-2.848 1.282-2.848 2.849l0.352 2.903-3.812-0.37c-1.566 0.037-2.818 1.349-2.78 2.915l0.131 5.538c0.037 1.566 1.349 2.817 2.915 2.78l3.732-0.584-0.538 4.439c0 1.567 1.282 2.849 2.848 2.849h5.539c1.567 0 2.849-1.282 2.849-2.849l-0.588-4.44 3.738 0.585c1.566 0.037 2.878-1.214 2.915-2.78l0.132-5.538z" fill="#fff"/>
   <path transform="translate(39.749 12.804)" d="m0 0c-1.676 0-3.046 1.371-3.046 3.046v0.396c0 1.676 1.37 3.047 3.046 3.047s3.046-1.371 3.046-3.047v-0.396c0-1.675-1.37-3.046-3.046-3.046" fill="#f7931d"/>
   <path transform="translate(14.093 40.424)" d="m0 0 0.475-0.518 0.728 0.699-0.499 0.495c-0.037 0.038-0.074 0.079-0.11 0.121l-0.71-0.682c0.04-0.037 0.08-0.076 0.116-0.115m7.661 3.927c0.729-0.724 0.733-1.912 9e-3 -2.641l-1.965-1.55 1.5-1.198c0.711-0.741 0.687-1.929-0.054-2.64l-2.619-2.514c-0.74-0.711-1.928-0.687-2.64 0.054l-1.151 1.533-1.634-1.906c-0.757-0.693-1.944-0.641-2.638 0.116l-2.451 2.678c-0.694 0.757-0.641 1.944 0.116 2.638l2.03 1.417-2.27 1.855c-0.711 0.741-0.687 1.929 0.054 2.64l2.618 2.514c0.741 0.711 1.929 0.687 2.64-0.054l1.738-2.366 1.501 1.973c0.724 0.729 1.912 0.733 2.641 9e-3l2.575-2.558z" fill="#fff"/>
   <path transform="translate(16.436 38.325)" d="m0 0c-0.792-0.761-2.063-0.735-2.823 0.058l-0.18 0.187c-0.76 0.792-0.734 2.062 0.058 2.823 0.792 0.76 2.062 0.734 2.823-0.058l0.18-0.187c0.76-0.792 0.734-2.062-0.058-2.823" fill="#f7931d"/>
  </pattern>
  <clipPath id="clipPath166">
   <path transform="translate(-707.5 -84.28)" d="M 0,595.28 H 841.89 V 0 H 0 Z"/>
  </clipPath>
  <clipPath id="clipPath168">
   <path transform="translate(-638.39 -225.13)" d="M 0,595.28 H 841.89 V 0 H 0 Z"/>
  </clipPath>
  <clipPath id="clipPath170">
   <path transform="translate(-700.24 -137.14)" d="M 0,595.28 H 841.89 V 0 H 0 Z"/>
  </clipPath>
  <clipPath id="clipPath172">
   <path transform="translate(-700.24 -137.14)" d="M 0,595.28 H 841.89 V 0 H 0 Z"/>
  </clipPath>
  <clipPath id="clipPath174">
   <path transform="translate(-682.86 -262.28)" d="M 0,595.28 H 841.89 V 0 H 0 Z"/>
  </clipPath>
  <clipPath id="clipPath176">
   <path transform="translate(-647.67 -262.36)" d="M 0,595.28 H 841.89 V 0 H 0 Z"/>
  </clipPath>
  <clipPath id="clipPath178">
   <path transform="translate(-644.86 -263.69)" d="M 0,595.28 H 841.89 V 0 H 0 Z"/>
  </clipPath>
  <clipPath id="clipPath180">
   <path transform="translate(-661 -262.36)" d="M 0,595.28 H 841.89 V 0 H 0 Z"/>
  </clipPath>
  <clipPath id="clipPath182">
   <path transform="translate(-663.8 -263.69)" d="M 0,595.28 H 841.89 V 0 H 0 Z"/>
  </clipPath>
  <clipPath id="clipPath184">
   <path transform="translate(-650.67 -253.61)" d="M 0,595.28 H 841.89 V 0 H 0 Z"/>
  </clipPath>
  <clipPath id="clipPath186">
   <path transform="translate(-649.34 -246.84)" d="M 0,595.28 H 841.89 V 0 H 0 Z"/>
  </clipPath>
  <clipPath id="clipPath188">
   <path transform="translate(-694.35 -289.45)" d="M 0,595.28 H 841.89 V 0 H 0 Z"/>
  </clipPath>
 </defs>
 <g id="hijo">
  <g fill="#fdcc99" stroke="#cb9866" stroke-miterlimit="10">
   <path transform="matrix(1.3333 0 0 -1.3333 144.45 574.72)" d="m0 0c0 2.381-1.019 4.542-2.673 6.163h3e-3c-7.98 31.438 1.52 73.63 1.52 73.63l-16.189 13.237s-8.054-55.429-0.075-86.867c-1.654-1.621-2.673-3.782-2.673-6.163 0-0.638 0.074-1.259 0.212-1.86-0.396-2.521-0.239-6.533 0.546-10.991 1.29-7.326 3.778-13.059 5.557-12.806 0.273 0.039 0.509 0.231 0.716 0.531 1.091-2.755 2.284-4.435 3.263-4.296 1.779 0.253 2.175 6.396 0.885 13.722-0.43 2.443-0.995 4.701-1.621 6.628 0.162-8e-3 0.322-0.023 0.486-0.023 1.259 0 2.459 0.219 3.569 0.602 0.257-5.073 1.595-8.945 3.213-8.945 1.801 0 3.261 4.795 3.261 10.709 0 1.621-0.113 3.151-0.309 4.527 0.195 0.706 0.309 1.441 0.309 2.202" clip-path="url(#clipPath2)"/>
   <path transform="matrix(1.3333 0 0 -1.3333 273.08 566.47)" d="m0 0h6e-3c7.98 31.437 0.762 86.84 0.762 86.84l-16.19-13.236s8.907-41.971 0.927-73.408h3e-3c-1.789-1.642-2.896-3.896-2.896-6.385 0-0.761 0.115-1.496 0.309-2.202-0.196-1.377-0.309-2.907-0.309-4.527 0-5.914 1.46-10.709 3.261-10.709 1.618 0 2.957 3.872 3.213 8.945 1.111-0.383 2.311-0.602 3.57-0.602 0.164 0 0.323 0.015 0.486 0.022-0.627-1.926-1.191-4.184-1.622-6.628-1.29-7.325-0.893-13.468 0.886-13.721 0.979-0.139 2.172 1.541 3.262 4.295 0.207-0.299 0.443-0.492 0.717-0.531 1.778-0.252 4.266 5.481 5.556 12.806 0.785 4.459 0.942 8.471 0.546 10.992 0.138 0.6 0.212 1.222 0.212 1.86 0 2.394-1.029 4.565-2.699 6.189" clip-path="url(#clipPath4)"/>
   <path transform="matrix(1.3333 0 0 -1.3333 247.35 337.33)" d="m0 0c-0.251 0-0.497-0.022-0.74-0.054-3.436 16.996-18.453 29.792-36.462 29.792-18.014 0-33.036-12.804-36.465-29.808-0.277 0.041-0.559 0.07-0.847 0.07-3.163 0-5.75-2.587-5.75-5.75v-2.436c0-3.162 2.587-5.75 5.75-5.75 0.226 0 0.448 0.017 0.667 0.042 2.467-14.146 12.926-25.542 26.555-29.375v-10.314c-0.576-0.131-1.141-0.274-1.695-0.427 3.782-2.707 12.084-6.602 23.005 0.155-0.547 0.142-1.103 0.276-1.671 0.397v10.035c13.889 3.679 24.591 15.187 27.094 29.515 0.184-0.017 0.37-0.028 0.559-0.028 3.163 0 5.75 2.588 5.75 5.75v2.436c0 3.163-2.587 5.75-5.75 5.75" clip-path="url(#clipPath6)"/>
  </g>
  <g>
   <path transform="matrix(1.3333 0 0 -1.3333 183.1 341.83)" d="m0 0c0-2.797-3.174-5.064-7.089-5.064s-7.089 2.267-7.089 5.064 3.174 5.064 7.089 5.064 7.089-2.267 7.089-5.064" clip-path="url(#clipPath8)" fill="#fff"/>
   <path transform="matrix(1.3333 0 0 -1.3333 179.63 341.06)" d="m0 0c0-2.479-2.01-4.489-4.489-4.489s-4.488 2.01-4.488 4.489 2.009 4.489 4.488 4.489 4.489-2.01 4.489-4.489" clip-path="url(#clipPath10)" fill="#414142"/>
   <path transform="matrix(1.3333 0 0 -1.3333 230.98 341.83)" d="m0 0c0-2.797-3.174-5.064-7.089-5.064s-7.089 2.267-7.089 5.064 3.174 5.064 7.089 5.064 7.089-2.267 7.089-5.064" clip-path="url(#clipPath12)" fill="#fff"/>
   <path transform="matrix(1.3333 0 0 -1.3333 227.51 341.06)" d="m0 0c0-2.479-2.01-4.489-4.489-4.489s-4.488 2.01-4.488 4.489 2.009 4.489 4.488 4.489 4.489-2.01 4.489-4.489" clip-path="url(#clipPath14)" fill="#414142"/>
  </g>
  <path transform="matrix(1.3333 0 0 -1.3333 203.9 359.2)" d="m0 0s0.026-1.995-1.441-1.957c0 0 0.175-1.496-4.083-1.266h0.92c-4.258-0.23-4.083 1.266-4.083 1.266-1.468-0.038-1.441 1.957-1.441 1.957" clip-path="url(#clipPath16)" fill="none" stroke="#cb9866" stroke-miterlimit="10"/>
  <path transform="matrix(1.3333 0 0 -1.3333 185.73 369.35)" d="m0 0s7.263-7.885 17.801 0.678c0 0-4.61-2.479-5.551-1.992-0.941 0.486-5.928 0.839-7.433-0.455-0.831-0.713-4.817 1.769-4.817 1.769" clip-path="url(#clipPath18)" fill="#cb9866"/>
  <path transform="matrix(1.3333 0 0 -1.3333 192.07 397.58)" d="m0 0s3.913-2.877 7.941 0" clip-path="url(#clipPath20)" fill="none" stroke="#cb9866" stroke-miterlimit="10"/>
  <g fill="#754c29">
   <path transform="matrix(1.3333 0 0 -1.3333 247.15 342.81)" d="m0 0s-7.16 14.955-7.526 19.278c0 0-9.266 12.302-19.548 10.767-10.282-1.534-29.155-16.819-42.66-15.622 0 0-2.438-13.01-4.365-14.423 0 0-3.923 7.948-0.854 14.239 0 0-9.054 16.727 12.737 24.86 21.791 8.134 48.34 0 48.34 0s8.44-2.915 7.979-6.138c0 0 4.449-4.129 5.587-7.662 2.916-9.054 0.31-25.299 0.31-25.299" clip-path="url(#clipPath22)"/>
   <path transform="matrix(1.3333 0 0 -1.3333 164.81 331.5)" d="m0 0s8.057 3.223 11.97 0.614c0 0-3.683 7.366-11.97-0.614" clip-path="url(#clipPath24)"/>
   <path transform="matrix(1.3333 0 0 -1.3333 230.27 331.5)" d="m0 0s-8.057 3.223-11.97 0.614c0 0 3.683 7.366 11.97-0.614" clip-path="url(#clipPath26)"/>
  </g>
  <g stroke-miterlimit="10">
   <path transform="matrix(1.3333 0 0 -1.3333 145.88 552.74)" d="m0 0c0.071-0.207 0.134-0.419 0.206-0.625v-135.53h30.103v103.84c2.777-0.76 5.651-1.161 8.594-1.161 3.044 0 6.011 0.434 8.875 1.245v-103.92h30.103v136.36c0.047 0.137 0.086 0.278 0.132 0.415-39.595-15.915-68.002-5.563-78.013-0.628" clip-path="url(#clipPath28)" fill="#c49a6c" stroke="#754c29"/>
   <path transform="matrix(1.3333 0 0 -1.3333 247.35 484.77)" d="m0 0 1.306-2.298 25.013 24.047s-20.252 22.777-30.004 27.204c-1.959 1.799-4.538 2.906-7.364 2.906h-4.716c-2.543 2.078-6.072 3.763-10.217 4.861-10.921-6.899-19.223-2.922-23.005-0.158-3.901-1.098-7.225-2.721-9.652-4.703h-4.716c-1.998 0-3.87-0.557-5.492-1.514v2e-3c-8.165-0.572-32.5-27.945-32.5-27.945l25.013-24.047 1.93 3.397v-8.996c-3.591-7.333-5.655-15.822-5.655-24.88 0-7.511 1.424-14.627 3.954-21.023 10.011-4.293 38.419-13.297 78.013 0.546 2.397 6.255 3.747 13.179 3.747 20.477 0 9.058-2.064 17.547-5.655 24.88z" clip-path="url(#clipPath30)" fill="#2bb673" stroke="#006838"/>
   <path transform="matrix(1.3333 0 0 -1.3333 185.2 758.41)" d="m0 0c-0.109 5.262-0.432 15.372-1.329 17.952l-4.758 0.613s0.614 3.376-7.059 3.07c-7.673-0.307-7.059-3.07-7.059-3.07h-6.905s-10.097-11.561-11.25-19.349c5.477-3.089 21.165-9.932 38.36 0.784" clip-path="url(#clipPath32)" fill="#414142" stroke="#414142"/>
   <path transform="matrix(1.3333 0 0 -1.3333 134.05 759.46)" d="m0 0c-0.086-0.58-0.127-1.142-0.106-1.674l-6e-3 -4.143s18.574-13.505 38.524 0v3.376s-0.011 1.286-0.052 3.225c-17.194-10.716-32.882-3.873-38.36-0.784" clip-path="url(#clipPath34)" fill="#f1f1f2" stroke="#58595b"/>
  </g>
  <g fill="none" stroke="#f1f1f2" stroke-miterlimit="10" stroke-width="3">
   <path transform="matrix(1.3333 0 0 -1.3333 156.05 737.65)" d="m0 0 13.523-0.46" clip-path="url(#clipPath36)"/>
   <path transform="matrix(1.3333 0 0 -1.3333 153.04 743.24)" d="m0 0 16.957-0.46" clip-path="url(#clipPath38)"/>
   <path transform="matrix(1.3333 0 0 -1.3333 149.73 749.5)" d="m0 0 19.435-0.369" clip-path="url(#clipPath40)"/>
  </g>
  <path transform="matrix(1.3333 0 0 -1.3333 211.01 758.41)" d="m0 0c0.109 5.262 0.432 15.372 1.329 17.952l4.758 0.613s-0.614 3.376 7.059 3.07c7.673-0.307 7.059-3.07 7.059-3.07h6.905s10.097-11.561 11.25-19.349c-5.477-3.089-21.165-9.932-38.36 0.784" clip-path="url(#clipPath42)" fill="#414142" stroke="#414142" stroke-miterlimit="10"/>
  <path transform="matrix(1.3333 0 0 -1.3333 262.15 759.46)" d="m0 0c0.086-0.58 0.127-1.142 0.106-1.674l6e-3 -4.143s-18.574-13.505-38.524 0v3.376s0.012 1.286 0.052 3.225c17.194-10.716 32.882-3.873 38.36-0.784" clip-path="url(#clipPath44)" fill="#f1f1f2" stroke="#58595b" stroke-miterlimit="10"/>
  <g fill="none" stroke="#f1f1f2" stroke-miterlimit="10" stroke-width="3">
   <path transform="matrix(1.3333 0 0 -1.3333 240.16 737.65)" d="m0 0-13.523-0.46" clip-path="url(#clipPath46)"/>
   <path transform="matrix(1.3333 0 0 -1.3333 243.17 743.24)" d="m0 0-16.957-0.46" clip-path="url(#clipPath48)"/>
   <path transform="matrix(1.3333 0 0 -1.3333 246.47 749.5)" d="m0 0-19.435-0.369" clip-path="url(#clipPath50)"/>
  </g>
 </g>
 <g id="papa">
  <path transform="matrix(1.3333 0 0 -1.3333 474.27 421.01)" d="m0 0-6.938 57.14h-81.761l-4.089-57.14-0.782-230.46h37.9l5.397 222.36 7.029-0.033 5.396-222.33h37.901v230.46z" fill="#754c29" stroke="#3c2415" stroke-miterlimit="10"/>
  <path transform="matrix(1.3333 0 0 -1.3333 481.19 194.23)" d="m0 0c-5.729 2.233-9.84 3.214-12.707 3.281l-41.586 12.624-45.289-12.99c-2.568 0-5.006-1.012-7.122-2.564-37.123-16.234-31.956-100.01-31.956-100.01l27.111 3.813c-0.781 8.393 1.407 24.069 3.992 38.535l7.268-51.607c0-5.591 6.361-10.166 14.136-10.166h65.298c7.774 0 14.135 4.575 14.135 10.166l7.293 58.538c3.13-16.256 6.361-36.383 5.437-46.313l27.111-3.813s5.282 85.538-33.121 100.5" clip-path="url(#clipPath53)" fill="#f1f1f2"/>
  <path transform="matrix(1.3333 0 0 -1.3333 481.19 194.23)" d="m0 0c-5.729 2.233-9.84 3.214-12.707 3.281l-41.586 12.624-45.289-12.99c-2.568 0-5.006-1.012-7.122-2.564-37.123-16.234-31.956-100.01-31.956-100.01l27.111 3.813c-0.781 8.393 1.407 24.069 3.992 38.535l7.268-51.607c0-5.591 6.361-10.166 14.136-10.166h65.298c7.774 0 14.135 4.575 14.135 10.166l7.293 58.538c3.13-16.256 6.361-36.383 5.437-46.313l27.111-3.813s5.282 85.538-33.121 100.5z" clip-path="url(#clipPath55)" fill="none" stroke="#a7a9ac" stroke-miterlimit="10"/>
  <g fill="#fdcc99" stroke="#cb9866" stroke-miterlimit="10">
   <path transform="matrix(1.3333 0 0 -1.3333 455.03 79.614)" d="m0 0c-0.593 0-1.164-0.09-1.707-0.251-2.824 21.506-17.306 37.885-34.757 37.885-17.423 0-31.885-16.325-34.743-37.778-0.418 0.092-0.849 0.144-1.293 0.144-3.324 0-6.044-2.72-6.044-6.044v-5.81c0-3.325 2.72-6.045 6.044-6.045 0.55 0 1.081 0.081 1.589 0.221 2.386-14.111 9.832-25.774 19.762-31.66v-25.334c0-5.591 4.575-10.166 10.166-10.166h9.037c5.592 0 10.166 4.575 10.166 10.166v25.334c9.96 5.903 17.418 17.621 19.781 31.788 0.627-0.222 1.298-0.349 1.999-0.349 3.324 0 6.044 2.72 6.044 6.045v5.81c0 3.324-2.72 6.044-6.044 6.044" clip-path="url(#clipPath57)"/>
   <path transform="matrix(1.3333 0 0 -1.3333 353.19 430.44)" d="m0 0c-1.793 8.465-8.078 16.749-9.498 18.541l0.325 0.078c-4.236 66.082-13.766 69.895-13.766 69.895l-20.757-2.118 20.523-71.15h1e-3c-3.221-18.461 0.22-32.46 0.22-32.46s7.651-11.363 11.139-14.851c3.487-3.488 5.513-2.475 5.513-2.475s1.411 0.338-1.351 4.388c-2.761 4.049-8.1 14.063-8.1 14.063 4.725-8.663 16.539-25.089 18.339-23.176 1.8 1.912 0.675 4.387 0.675 4.387s-11.701 23.74-11.533 28.803c0.168 5.062 2.935 1.912 2.935 1.912 3.216-4.95 9.61-12.263 11.298-10.126 1.688 2.138-5.963 14.289-5.963 14.289" clip-path="url(#clipPath59)"/>
   <path transform="matrix(1.3333 0 0 -1.3333 468.47 431.57)" d="m0 0c1.793 8.465 8.078 16.749 9.498 18.541l-0.325 0.078c4.236 66.082 13.766 69.895 13.766 69.895l20.757-2.118-20.523-71.15h-1e-3c3.221-18.461-0.22-32.46-0.22-32.46s-7.651-11.363-11.139-14.851c-3.487-3.488-5.513-2.475-5.513-2.475s-1.411 0.338 1.351 4.388c2.761 4.049 8.1 14.063 8.1 14.063-4.725-8.663-16.539-25.089-18.339-23.176-1.8 1.912-0.675 4.387-0.675 4.387s11.701 23.74 11.533 28.803c-0.168 5.062-2.935 1.912-2.935 1.912-3.216-4.95-9.61-12.263-11.298-10.126-1.688 2.138 5.963 14.289 5.963 14.289" clip-path="url(#clipPath61)"/>
   <path transform="matrix(1.3333 0 0 -1.3333 399.51 90.863)" d="m0 0s0.53-12.857 0-15.165" clip-path="url(#clipPath63)"/>
   <path transform="matrix(1.3333 0 0 -1.3333 394.99 112.47)" d="m0 0s0.741-1.906 2.542-1.483c0 0 3.283-3.194 7.624-0.061 0 0 2.436 0.167 2.33 1.544" clip-path="url(#clipPath65)"/>
   <path transform="matrix(1.3333 0 0 -1.3333 392.73 148.29)" d="m0 0s9.865-8.19 19.406-0.565" clip-path="url(#clipPath67)"/>
  </g>
  <path transform="matrix(1.3333 0 0 -1.3333 394.14 128)" d="m0 0s10.802-4.66 19.803 2.859c0 0-3.918-2.168-5.718-2.143 0 0-1.986 0.822-5.441 0 0 0-4.453 0.543-5.013-0.934z" clip-path="url(#clipPath69)" fill="#cb9866"/>
  <g fill="#754c29">
   <path transform="matrix(1.3333 0 0 -1.3333 453.14 84.475)" d="m0 0-5.568 19.891s-9.821 10.101-10.303 13.226c0 0-25.407 10.073-40.196-1.661 0 0-5.494-10.105-7.812-10.355l-6.209-21.101s-2.074 13.931-0.221 20.85 0.159 14.685 3.971 17.086c0 0-6.777 17.367 29.511 16.661 36.289-0.706 33.606-16.803 33.606-16.803s2.683-12.99 2.542-17.932c-0.382-13.378 0.679-19.862 0.679-19.862" clip-path="url(#clipPath71)"/>
   <path transform="matrix(1.3333 0 0 -1.3333 370.52 69.288)" d="m0 0s14.393 1.836 18.351-1.694l-1.074 3.106s-13.888 2.824-18.83 1.836z" clip-path="url(#clipPath73)"/>
   <path transform="matrix(1.3333 0 0 -1.3333 441.49 69.288)" d="m0 0s-14.393 1.836-18.351-1.694l1.074 3.106s13.888 2.824 18.83 1.836z" clip-path="url(#clipPath75)"/>
  </g>
  <g fill="#f1f1f2" stroke="#a7a9ac" stroke-miterlimit="10">
   <path transform="matrix(1.3333 0 0 -1.3333 386.83 166.25)" d="m0 0 13.947-19.864-6.973-10-16.264 17.014z" clip-path="url(#clipPath77)"/>
   <path transform="matrix(1.3333 0 0 -1.3333 425.94 166.25)" d="m0 0-13.947-19.864 6.973-10 16.264 17.014z" clip-path="url(#clipPath79)"/>
   <path transform="matrix(1.3333 0 0 -1.3333 333.96 313.55)" d="m0 0-32.476 2.258 3.201-8.189-3.201-4.801 3.991-1.412-3.991-3.106h3.991l-0.79-5.931 30.687 6.778-3.389 4.942 4.801 2.118-3.954 2.824z" clip-path="url(#clipPath81)"/>
   <path transform="matrix(1.3333 0 0 -1.3333 488.15 313.55)" d="m0 0 32.476 2.258-3.201-8.189 3.201-4.801-3.991-1.412 3.991-3.106h-3.991l0.79-5.931-30.687 6.778 3.389 4.942-4.801 2.118 3.954 2.824z" clip-path="url(#clipPath83)"/>
  </g>
  <path transform="matrix(1.3333 0 0 -1.3333 393.26 728.76)" d="m0 0c0.382 0.064 0.748-0.187 0.908-0.573 1.667-4.04 8.084-20.369 6.651-29.236l-0.587-3.863s-36.268-10.943-50.822 1.932v6.051s4.988 16.865 14.848 26.134c0 0 3.814-0.128 6.397 0.644 0 0-0.939 2.446 2.699 3.219 3.639 0.772 12.559 0.869 13.967 0 1.409-0.87 1.174-3.219 1.174-3.219s3.415-1.315 4.765-1.089" clip-path="url(#clipPath85)" fill="#414142"/>
  <path transform="matrix(1.3333 0 0 -1.3333 393.26 728.76)" d="m0 0c0.382 0.064 0.748-0.187 0.908-0.573 1.667-4.04 8.084-20.369 6.651-29.236l-0.587-3.863s-36.268-10.943-50.822 1.932v6.051s4.988 16.865 14.848 26.134c0 0 3.814-0.128 6.397 0.644 0 0-0.939 2.446 2.699 3.219 3.639 0.772 12.559 0.869 13.967 0 1.409-0.87 1.174-3.219 1.174-3.219s3.415-1.315 4.765-1.089z" clip-path="url(#clipPath87)" fill="none" stroke="#231f20" stroke-miterlimit="10"/>
  <g fill="#414142" stroke="#231f20" stroke-miterlimit="10">
   <path transform="matrix(1.3333 0 0 -1.3333 430.33 728.76)" d="m0 0c-0.382 0.064-0.748-0.187-0.908-0.573-1.667-4.04-8.084-20.369-6.651-29.236l0.587-3.863s36.268-10.943 50.822 1.932v6.051s-4.988 16.865-14.848 26.134c0 0-3.814-0.128-6.397 0.644 0 0 0.939 2.446-2.699 3.219-3.639 0.772-12.559 0.869-13.967 0-1.409-0.87-1.174-3.219-1.174-3.219s-3.415-1.315-4.765-1.089" clip-path="url(#clipPath89)"/>
   <path transform="matrix(1.3333 0 0 -1.3333 385.4 368.16)" d="m0 0h-22.066l0.939 9.703h21.127z" clip-path="url(#clipPath91)"/>
   <path transform="matrix(1.3333 0 0 -1.3333 465.52 367.33)" d="m0 0-22.066-0.626v9.703h21.127z" clip-path="url(#clipPath93)"/>
   <path transform="matrix(1.3333 0 0 -1.3333 0 793.71)" d="m323.01 319.16h-29.734v9.703h29.734z" clip-path="url(#clipPath95)"/>
  </g>
  <path transform="matrix(1.3333 0 0 -1.3333 417.09 366.97)" d="m0 0c-1.841-1.841-8.391-1.637-10.417 0-1.509 1.22-1.372 6.389 0 7.761 1.842 1.842 8.78 2.026 10.417 0 1.22-1.509 1.372-6.389 0-7.761z" clip-path="url(#clipPath97)" fill="none" stroke="#e5a712" stroke-miterlimit="10" stroke-width="2"/>
  <g>
   <path transform="matrix(1.3333 0 0 -1.3333 407.74 199.56)" d="m0 0v-111" clip-path="url(#clipPath99)" fill="#f1f1f2" stroke="#a7a9ac" stroke-miterlimit="10"/>
   <path transform="matrix(1.3333 0 0 -1.3333 393.56 80.32)" d="m0 0c0-2.573-2.92-4.66-6.523-4.66-3.602 0-6.523 2.087-6.523 4.66s2.921 4.66 6.523 4.66c3.603 0 6.523-2.087 6.523-4.66" clip-path="url(#clipPath101)" fill="#fff"/>
   <path transform="matrix(1.3333 0 0 -1.3333 390.37 79.614)" d="m0 0c0-2.281-1.849-4.13-4.13-4.13s-4.13 1.849-4.13 4.13 1.849 4.13 4.13 4.13 4.13-1.849 4.13-4.13" clip-path="url(#clipPath103)" fill="#414142"/>
   <path transform="matrix(1.3333 0 0 -1.3333 436.19 80.32)" d="m0 0c0-2.573-2.92-4.66-6.523-4.66-3.602 0-6.523 2.087-6.523 4.66s2.921 4.66 6.523 4.66c3.603 0 6.523-2.087 6.523-4.66" clip-path="url(#clipPath105)" fill="#fff"/>
   <path transform="matrix(1.3333 0 0 -1.3333 433 79.614)" d="m0 0c0-2.281-1.849-4.13-4.13-4.13s-4.13 1.849-4.13 4.13 1.849 4.13 4.13 4.13 4.13-1.849 4.13-4.13" clip-path="url(#clipPath107)" fill="#414142"/>
  </g>
 </g>
 <g id="mama">
  <g>
   <path transform="matrix(1.3333 0 0 -1.3333 610.03 119.92)" d="m0 0s-11.075-11.577-7.306-38.945c3.768-27.368-12.504-39.395-12.504-39.395s21.844-3.538 25.603 0c3.758 3.537 42.672 1.061 42.672 1.061s16.272-4.702 24.762 2.248c0 0-12.487 7.303-13.142 18.27-0.654 10.966 15.589 33.574-0.315 56.761-15.904 23.188-59.77 0-59.77 0" clip-path="url(#clipPath109)" fill="#a97b50"/>
   <path transform="matrix(1.3333 0 0 -1.3333 636.62 717.9)" d="m0 0 6.943 123.22-29.715-6.278 6.272-117.51-11.225-39.218s20.721-9.318 32.192 3.681l-4.534 34.915z" clip-path="url(#clipPath111)" fill="#fdcc99" stroke="#cb9866" stroke-miterlimit="10"/>
   <path transform="matrix(1.3333 0 0 -1.3333 687.44 720.04)" d="m0 0 6.328 118.55-29.715 6.279 6.903-122.51-4.781-36.815c11.471-12.998 32.192-3.681 32.192-3.681z" clip-path="url(#clipPath113)" fill="#fdcc99" stroke="#cb9866" stroke-miterlimit="10"/>
  </g>
  <g fill="#414142" stroke="#231f20" stroke-miterlimit="10">
   <path transform="matrix(1.3333 0 0 -1.3333 0 793.71)" d="m477.4 55.668h-16.849v8.407h16.849z" clip-path="url(#clipPath115)"/>
   <path transform="matrix(1.3333 0 0 -1.3333 602.92 759.55)" d="m0 0s23.908 5.525 28.86-1.019l0.885-3.849s-7.96-12.626-32.192-3.681z" clip-path="url(#clipPath117)"/>
   <path transform="matrix(1.3333 0 0 -1.3333 0 793.71)" d="m498.85 55.668h16.849v8.407h-16.849z" clip-path="url(#clipPath119)"/>
   <path transform="matrix(1.3333 0 0 -1.3333 698.75 759.55)" d="m0 0s-23.908 5.525-28.86-1.019l-0.885-3.849s7.96-12.626 32.192-3.681z" clip-path="url(#clipPath121)"/>
  </g>
  <path transform="matrix(1.3333 0 0 -1.3333 696.35 563.51)" d="m0 0h-67.567s-21.226 42.981-21.226 84.371c0 41.389 24.965 90.991 24.965 90.991h55.367s27.917-45.887 27.917-92.053c0-46.165-19.456-83.309-19.456-83.309" clip-path="url(#clipPath123)" fill="#bf1e2d" stroke="#9f1e63" stroke-miterlimit="10"/>
  <path transform="matrix(1.3333 0 0 -1.3333 725.89 410.68)" d="m0 0c0.644 12.173 6.099 126.91-16.498 140.56 1e-3 1e-3 2e-3 7e-3 2e-3 7e-3l-30.046 7.704v19.78c8.472 5.058 14.833 15.514 16.805 28.205 0.145-0.015 0.286-0.044 0.434-0.044 2.311 0 4.203 1.891 4.203 4.202v3.762c0 2.282-1.846 4.147-4.118 4.194-1.381 20.241-13.777 36.083-28.87 36.083-15.1 0-27.5-15.856-28.872-36.109-0.115 9e-3 -0.225 0.035-0.343 0.035-2.311 0-4.202-1.892-4.202-4.203v-3.762c0-2.311 1.891-4.202 4.202-4.202 0.295 0 0.583 0.032 0.861 0.091 2.026-13.109 8.731-23.839 17.613-28.709v-19.255l-28.854-7.772c-22.505-13.553-17.201-127.35-16.516-140.39h-1e-3c-10.169-21.863-2.292-32.108-2.292-32.108 0.762-4.108 3.659-2.65 3.659-2.65-1.677 3.312-1.372 5.698-1.372 5.698 1.372-5.698 7.929-11.396 7.929-11.396 6.251-1.193 2.781 3.445 2.781 3.445-1.793 1.458-5.526 14.444-5.452 17.633 0.074 3.188 1.146 3.304 1.146 3.304 2.439-4.24 4.269-13.384 4.269-13.384 4.269-2.65 5.184 2.253 5.184 2.253l-1.067 8.879c1.524 6.625-4.117 19.214-4.117 19.214l-0.16-0.013c-1.233 21.077 7.975 83.491 12.174 110.47 3.242-16.335 6.55-35.192 6.55-44.124l-1.016-6.645h55.368l-0.592 6.645c0 9.386 4.227 29.732 8.149 46.594 3.987-25.417 13.835-91.197 12.56-112.94l-0.245 0.02s-5.641-12.589-4.116-19.214l-1.068-8.879s0.915-4.903 5.184-2.253c0 0 1.83 9.144 4.27 13.384 0 0 1.071-0.116 1.145-3.304 0.074-3.189-3.659-16.175-5.452-17.633 0 0-3.469-4.638 2.782-3.445 0 0 6.556 5.698 7.928 11.396 0 0 0.305-2.386-1.372-5.698 0 0 2.897-1.458 3.659 2.65 0 0 7.832 10.194-2.216 31.938" clip-path="url(#clipPath125)" fill="#fdcc99"/>
  <path transform="matrix(1.3333 0 0 -1.3333 725.89 410.68)" d="m0 0c0.644 12.173 6.099 126.91-16.498 140.56 1e-3 1e-3 2e-3 7e-3 2e-3 7e-3l-30.046 7.704v19.78c8.472 5.058 14.833 15.514 16.805 28.205 0.145-0.015 0.286-0.044 0.434-0.044 2.311 0 4.203 1.891 4.203 4.202v3.762c0 2.282-1.846 4.147-4.118 4.194-1.381 20.241-13.777 36.083-28.87 36.083-15.1 0-27.5-15.856-28.872-36.109-0.115 9e-3 -0.225 0.035-0.343 0.035-2.311 0-4.202-1.892-4.202-4.203v-3.762c0-2.311 1.891-4.202 4.202-4.202 0.295 0 0.583 0.032 0.861 0.091 2.026-13.109 8.731-23.839 17.613-28.709v-19.255l-28.854-7.772c-22.505-13.553-17.201-127.35-16.516-140.39h-1e-3c-10.169-21.863-2.292-32.108-2.292-32.108 0.762-4.108 3.659-2.65 3.659-2.65-1.677 3.312-1.372 5.698-1.372 5.698 1.372-5.698 7.929-11.396 7.929-11.396 6.251-1.193 2.781 3.445 2.781 3.445-1.793 1.458-5.526 14.444-5.452 17.633 0.074 3.188 1.146 3.304 1.146 3.304 2.439-4.24 4.269-13.384 4.269-13.384 4.269-2.65 5.184 2.253 5.184 2.253l-1.067 8.879c1.524 6.625-4.117 19.214-4.117 19.214l-0.16-0.013c-1.233 21.077 7.975 83.491 12.174 110.47 3.242-16.335 6.55-35.192 6.55-44.124l-1.016-6.645h55.368l-0.592 6.645c0 9.386 4.227 29.732 8.149 46.594 3.987-25.417 13.835-91.197 12.56-112.94l-0.245 0.02s-5.641-12.589-4.116-19.214l-1.068-8.879s0.915-4.903 5.184-2.253c0 0 1.83 9.144 4.27 13.384 0 0 1.071-0.116 1.145-3.304 0.074-3.189-3.659-16.175-5.452-17.633 0 0-3.469-4.638 2.782-3.445 0 0 6.556 5.698 7.928 11.396 0 0 0.305-2.386-1.372-5.698 0 0 2.897-1.458 3.659 2.65 0 0 7.832 10.194-2.216 31.938z" clip-path="url(#clipPath127)" fill="none" stroke="#cb9866" stroke-miterlimit="10"/>
  <g>
   <path transform="matrix(1.3333 0 0 -1.3333 697.83 250.05)" d="m0 0s-6.994-1.745-16.727-0.728c-7.528 0.786-15.576 3.106-18.837 4.117v28.03h10.547v5.572h-22.287v-5.572h7.492v-28.408c-3.148-0.918-8.687-2.335-14.944-3.032-9.686-1.079-17.056 0.021-17.056 0.021-1.154-3.47-1.748-8.684-1.029-12.225 0.884-4.358 4.666-11.14 4.666-11.14 4.978-28.81 2.655-36.364 2.655-36.364h56.428c-2.058 3.698 0.631 20.302 3.607 35.067 0 0 6.124 7.13 6.402 13.293 0.309 6.879-0.917 11.369-0.917 11.369" clip-path="url(#clipPath129)" fill="#58595b" stroke="#414142" stroke-miterlimit="10"/>
   <path transform="matrix(1.3333 0 0 -1.3333 639.34 188.76)" d="m0 0s7.738-7.96 14.637 0" clip-path="url(#clipPath131)" fill="#fdcc99" stroke="#cb9866" stroke-miterlimit="10"/>
   <path transform="matrix(1.3333 0 0 -1.3333 640.4 134.76)" d="m0 0s-5.129 6.323-12.956 3.936l-4.024-0.354s3.051-8.358 16.98-3.582" clip-path="url(#clipPath133)" fill="#f1f1f2"/>
   <path transform="matrix(1.3333 0 0 -1.3333 634.62 132.85)" d="m0 0c0-1.604-1.752-2.904-3.913-2.904-2.162 0-3.914 1.3-3.914 2.904s1.752 2.904 3.914 2.904c2.161 0 3.913-1.3 3.913-2.904" clip-path="url(#clipPath135)" fill="#414142"/>
   <path transform="matrix(1.3333 0 0 -1.3333 655.43 134.76)" d="m0 0s5.129 6.323 12.956 3.936l4.024-0.354s-3.051-8.358-16.98-3.582" clip-path="url(#clipPath137)" fill="#f1f1f2"/>
   <path transform="matrix(1.3333 0 0 -1.3333 661.21 132.85)" d="m0 0c0-1.604 1.752-2.904 3.913-2.904 2.162 0 3.914 1.3 3.914 2.904s-1.752 2.904-3.914 2.904c-2.161 0-3.913-1.3-3.913-2.904" clip-path="url(#clipPath139)" fill="#414142"/>
   <path transform="matrix(1.3333 0 0 -1.3333 644.11 136.72)" d="m0 0s2.255-12.455 1.327-15.108" clip-path="url(#clipPath141)" fill="#fdcc99" stroke="#cb9866" stroke-miterlimit="10"/>
   <path transform="matrix(1.3333 0 0 -1.3333 644.11 155.81)" d="m0 0s-0.199-5.107 3.184-5.041 3.051 4.709 3.051 4.709" clip-path="url(#clipPath143)" fill="#fdcc99" stroke="#cb9866" stroke-miterlimit="10"/>
   <path transform="matrix(1.3333 0 0 -1.3333 637.42 167.6)" d="m0 0s8.098-7.309 16.942 0.208c0 0-6.749 1.472-8.607-1.844 0 0-3.915 3.714-8.335 1.636" clip-path="url(#clipPath145)" fill="#ef4136"/>
  </g>
  <g fill="#a97b50">
   <path transform="matrix(1.3333 0 0 -1.3333 686.77 130.88)" d="m0 0s-15.957 16.435-16.545 30.907c0 0-20.798-23.527-41.072-32.385 0 0-5.727 9.979 0 21.122s21.646 29.697 42.606 20.42c0 0 25.512-13.278 15.011-40.064" clip-path="url(#clipPath147)"/>
   <path transform="matrix(1.3333 0 0 -1.3333 617.76 124.15)" d="m0 0s12.072 1.99 16.184-1.592c0 0-0.928 9.552-16.184 1.592" clip-path="url(#clipPath149)"/>
   <path transform="matrix(1.3333 0 0 -1.3333 678.6 124.15)" d="m0 0s-12.072 1.99-16.184-1.592c0 0 0.928 9.552 16.184 1.592" clip-path="url(#clipPath151)"/>
  </g>
 </g>
 <g>
  <g id="hija">
   <g>
    <g stroke-miterlimit="10">
     <path transform="matrix(1.3333 0 0 -1.3333 855.46 677.33)" d="m0 0-18.596-3 3.267-44.803c-5.235-4.314-7.937-7.724-9.228-10.341 4.037-3.045 12.251-6.538 23.248 2.453-1.219 3.728-3.099 7.106-3.1 7.106z" clip-path="url(#clipPath153)" fill="#fdcc99" stroke="#cb9866"/>
     <path transform="matrix(1.3333 0 0 -1.3333 822.72 754.86)" d="m0 0c-2.467-4.998 0.211-7.106 0.211-7.106s14.25-1.75 21.25 0c3.669 0.917 3.13 5.451 1.787 9.558-10.996-8.99-19.211-5.497-23.248-2.452" clip-path="url(#clipPath155)" fill="#f1f1f2" stroke="#a7a9ac"/>
     <path transform="matrix(1.3333 0 0 -1.3333 887.66 677.33)" d="m0 0 18.596-3-3.267-44.803c5.235-4.314 7.937-7.724 9.228-10.341-4.037-3.045-12.251-6.538-23.248 2.453 1.219 3.728 3.099 7.106 3.1 7.106z" clip-path="url(#clipPath157)" fill="#fdcc99" stroke="#cb9866"/>
     <path transform="matrix(1.3333 0 0 -1.3333 920.4 754.86)" d="m0 0c2.467-4.998-0.211-7.106-0.211-7.106s-14.25-1.75-21.25 0c-3.669 0.917-3.13 5.451-1.787 9.558 10.996-8.99 19.211-5.497 23.248-2.452" clip-path="url(#clipPath159)" fill="#f1f1f2" stroke="#a7a9ac"/>
     <path transform="matrix(1.3333 0 0 -1.3333 943.33 681.33)" d="m0 0-26.638 125.2c-3.489 1.356-6.499 12.356-7.359 15.784-1.92 0.133-3.836 0.017-3.836 0.017h-3.498c-0.55-2.652-2.803-9.667-11.245-9.667s-9.882 7.015-10.126 9.667h-2.798s-1.796 0.025-3.606-0.147c-0.937-3.793-5.638-12.369-7.093-14.971l-30.801-125.88z" clip-path="url(#clipPath166)" fill="url(#pattern165)" stroke="#fbb03f"/>
     <path transform="matrix(1.3333 0 0 -1.3333 851.19 493.53)" d="m0 0c-1.393-0.133-2.795-0.383-3.394-0.853-32.333-6.666-24.667-87.143-24.667-87.143-5.791-14.393-1.417-18.461-1.417-18.461 0.416-1.605 1.834-1.646 1.834-1.646 0.5-3 3.375-1 3.375-1-1.125 1.375-1 3.75-1 3.75 0.25-1.75 4.035-6.125 4.035-6.125 2.66-1.375 2.715 1.625 2.715 1.625-4.5 6.625-0.75 12.625-0.75 12.625 2.625-1.25 3.001-5.5 3.001-5.5 2.751-2.125 2.999 2.75 2.999 2.75 0.125 6.375-6 11.982-6 11.982h0.542c-2.925 20.054 8.776 63.016 11.689 73.251l-0.055-0.226c1.455 2.602 6.156 11.178 7.093 14.971" clip-path="url(#clipPath168)" fill="#fdcc99" stroke="#cb9866"/>
    </g>
    <path transform="matrix(1.3333 0 0 -1.3333 933.66 610.86)" d="m0 0h0.462s7.445 78.165-23.292 86.805c-0.131 0.181-0.268 0.344-0.414 0.463-0.648 0.525-2.074 0.76-3.497 0.858 0.764-3.044 3.225-12.045 6.209-14.975 2.962-10.416 14.576-53.163 11.661-73.151h0.079s-6.125-5.607-6-11.982c0 0 0.248-4.875 2.999-2.75 0 0 0.376 4.25 3.001 5.5 0 0 3.75-6-0.75-12.625 0 0 0.055-3 2.715-1.625 0 0 3.785 4.375 4.035 6.125 0 0 0.125-2.375-1-3.75 0 0 2.875-2 3.375 1 0 0 1.418 0.041 1.834 1.646 0 0 4.375 4.068-1.417 18.461" clip-path="url(#clipPath170)" fill="#fdcc99"/>
   </g>
   <path transform="matrix(1.3333 0 0 -1.3333 933.66 610.86)" d="m0 0h0.462s7.445 78.165-23.292 86.805c-0.131 0.181-0.268 0.344-0.414 0.463-0.648 0.525-2.074 0.76-3.497 0.858 0.764-3.044 3.225-12.045 6.209-14.975 2.962-10.416 14.576-53.163 11.661-73.151h0.079s-6.125-5.607-6-11.982c0 0 0.248-4.875 2.999-2.75 0 0 0.376 4.25 3.001 5.5 0 0 3.75-6-0.75-12.625 0 0 0.055-3 2.715-1.625 0 0 3.785 4.375 4.035 6.125 0 0 0.125-2.375-1-3.75 0 0 2.875-2 3.375 1 0 0 1.418 0.041 1.834 1.646 0 0 4.375 4.068-1.417 18.461z" clip-path="url(#clipPath172)" fill="none" stroke="#cb9866" stroke-miterlimit="10"/>
   <g>
    <path transform="matrix(1.3333 0 0 -1.3333 910.47 444)" d="m0 0c-0.024 0-0.046-7e-3 -0.069-7e-3 -0.969 15.173-13.179 27.173-28.109 27.173-14.929 0-27.139-12-28.108-27.173-0.023 0-0.045 7e-3 -0.069 7e-3 -2.2 0-4-1.8-4-4v-1.75c0-2.2 1.8-4 4-4 0.348 0 0.68 0.059 1.003 0.144 2.497-9.481 9.499-17.041 18.497-20.048v-7.346h-1.202c0.244-2.652 1.684-9.667 10.126-9.667s10.695 7.015 11.245 9.667h-1.169v7.957c8.202 3.34 14.506 10.544 16.85 19.437 0.323-0.085 0.656-0.144 1.005-0.144 2.2 0 4 1.8 4 4v1.75c0 2.2-1.8 4-4 4" clip-path="url(#clipPath174)" fill="#fdcc99" stroke="#cb9866" stroke-miterlimit="10"/>
    <path transform="matrix(1.3333 0 0 -1.3333 863.56 443.89)" d="m0 0c0-2.485-3.298-3.417-6.75-3.417s-6.75 3.515-6.75 6c0 2.486 3.298 3 6.75 3s6.75-3.098 6.75-5.583" clip-path="url(#clipPath176)" fill="#fff"/>
    <path transform="matrix(1.3333 0 0 -1.3333 859.82 442.12)" d="m0 0c0-2.351-1.768-4.257-3.948-4.257-2.181 0-3.948 1.906-3.948 4.257s1.767 4.257 3.948 4.257c2.18 0 3.948-1.906 3.948-4.257" clip-path="url(#clipPath178)" fill="#414142"/>
    <path transform="matrix(1.3333 0 0 -1.3333 881.33 443.89)" d="m0 0c0-2.485 3.298-3.417 6.75-3.417s6.75 3.515 6.75 6c0 2.486-3.298 3-6.75 3s-6.75-3.098-6.75-5.583" clip-path="url(#clipPath180)" fill="#fff"/>
    <path transform="matrix(1.3333 0 0 -1.3333 885.07 442.12)" d="m0 0c0-2.351 1.768-4.257 3.948-4.257 2.181 0 3.948 1.906 3.948 4.257s-1.767 4.257-3.948 4.257c-2.18 0-3.948-1.906-3.948-4.257" clip-path="url(#clipPath182)" fill="#414142"/>
    <path transform="matrix(1.3333 0 0 -1.3333 867.56 455.56)" d="m0 0s0.417-3 3.417-2.917c3 0.084 3.666 1.458 3.666 1.458" clip-path="url(#clipPath184)" fill="#fdcc99" stroke="#cb9866" stroke-miterlimit="10"/>
    <path transform="matrix(1.3333 0 0 -1.3333 865.79 464.58)" d="m0 0s1.586-3.257 5.32-3.053c3.734 0.203 4.961 3.053 4.961 3.053s-1.458-1.434-2.225-1.531-3.683 0.911-5.524 0c0 0-0.998-0.097-2.532 1.531" clip-path="url(#clipPath186)" fill="#cb9866"/>
    <path transform="matrix(1.3333 0 0 -1.3333 925.8 407.78)" d="m0 0-1 6.342h-2.25l2.25 1.852-2 3.39c-8.17 0.38-13.592-5.878-15.727-8.906-4.255 3.336-10.449 5.516-19.371 5.516-10.152 0-17.103-2.317-21.821-5.806-1.98 2.896-7.49 9.589-15.929 9.196l-2-3.39 2.25-1.852h-2.25l-1-6.342h2l-2-1.666 1.75-5s10.914 9.019 14.996 7.21c-11.574-11.151-5.729-30.558-5.729-30.558l1.65 7.515 3.666 1 1.5 11.388v-10.388l2.667 1c-0.345 2.538 1.667 13.592 1.667 13.592v-13.592c2.333 1.833 10.677-0.667 10.677-0.667l2.323 19.868 3.333-18.035 1.5 0.167c0.167 12.833 2.25 16.667 2.25 16.667l2.583-17.334 1.5-0.333-1.5 17.667 3.136-17.009 4.198-0.825v13.667l3-14.092 1.833 0.759v10.833l3.167-12.333 5.5-2.334 1.606-8.517s5.95 20.509-4.912 31.987c4.264 1.35 14.737-7.303 14.737-7.303l1.75 5-2 1.666z" clip-path="url(#clipPath188)" fill="#a97b50"/>
   </g>
  </g>
 </g>
</svg>
